<?xml version="1.0" encoding="UTF-8" standalone="no"?>
<!DOCTYPE svg PUBLIC "-//W3C//DTD SVG 1.1//EN" "http://www.w3.org/Graphics/SVG/1.1/DTD/svg11.dtd">
<svg width="100%" height="100%" viewBox="0 0 21 56" version="1.1" xmlns="http://www.w3.org/2000/svg" xmlns:xlink="http://www.w3.org/1999/xlink" xml:space="preserve" xmlns:serif="http://www.serif.com/" style="fill-rule:evenodd;clip-rule:evenodd;stroke-linecap:round;stroke-linejoin:round;stroke-miterlimit:1.5;">
    <g id="Layer_2">
        <g>
            <path d="M13.362,2.985C12.5,4.936 13.379,5.99 12.944,6.482C12.429,7.065 12.456,9.577 13.991,9.517C14.799,9.485 14.177,7.003 12.944,6.482" style="fill:rgb(255,233,157);stroke:rgb(255,233,157);stroke-width:0.4px;"/>
            <g transform="matrix(0.864105,0.503312,-0.503312,0.864105,7.8758,-6.94877)">
                <path d="M13.086,2.947C12.904,5.083 13.579,5.394 12.944,6.482C12.552,7.154 12.456,9.577 13.991,9.517C14.534,9.495 14.431,8.368 13.932,7.472C13.688,7.035 13.349,6.653 12.944,6.482" style="fill:rgb(255,233,157);stroke:rgb(255,233,157);stroke-width:0.4px;"/>
            </g>
            <g transform="matrix(-1.05921,-0.751122,-0.578451,0.815717,35.0126,12.8176)">
                <path d="M13.362,2.985C12.5,4.936 13.379,5.99 12.944,6.482C12.429,7.065 12.456,9.577 13.991,9.517C14.799,9.485 14.177,7.003 12.944,6.482" style="fill:rgb(255,233,157);stroke:rgb(255,233,157);stroke-width:0.35px;"/>
            </g>
            <g transform="matrix(-0.89827,-0.937671,-0.722115,0.691773,33.2762,18.864)">
                <path d="M13.362,2.985C12.5,4.936 13.379,5.99 12.944,6.482C12.429,7.065 12.456,9.577 13.991,9.517C14.799,9.485 14.177,7.003 12.944,6.482" style="fill:rgb(255,233,157);stroke:rgb(255,233,157);stroke-width:0.35px;"/>
            </g>
            <g transform="matrix(-0.89827,-0.937671,-0.722115,0.691773,32.2119,21.4239)">
                <path d="M13.362,2.985C12.5,4.936 13.379,5.99 12.944,6.482C12.429,7.065 12.456,9.577 13.991,9.517C14.799,9.485 14.177,7.003 12.944,6.482" style="fill:rgb(255,233,157);stroke:rgb(255,233,157);stroke-width:0.35px;"/>
            </g>
            <g transform="matrix(-0.89827,-0.937671,-0.722115,0.691773,31.7782,23.9611)">
                <path d="M13.362,2.985C12.5,4.936 13.379,5.99 12.944,6.482C12.429,7.065 12.456,9.577 13.991,9.517C14.799,9.485 14.177,7.003 12.944,6.482" style="fill:rgb(255,233,157);stroke:rgb(255,233,157);stroke-width:0.35px;"/>
            </g>
            <g transform="matrix(-0.819537,-1.00721,-0.77567,0.631139,28.9459,30.8943)">
                <path d="M13.362,2.985C12.5,4.936 13.379,5.99 12.944,6.482C12.429,7.065 12.456,9.577 13.991,9.517C14.799,9.485 14.177,7.003 12.944,6.482" style="fill:rgb(255,233,157);stroke:rgb(255,233,157);stroke-width:0.35px;"/>
            </g>
            <g transform="matrix(-0.807213,-1.01712,-0.783297,0.621648,29.8491,28.5176)">
                <path d="M13.362,2.985C12.5,4.936 13.379,5.99 12.944,6.482C12.429,7.065 12.456,9.577 13.991,9.517C14.799,9.485 14.177,7.003 12.944,6.482" style="fill:rgb(255,233,157);stroke:rgb(255,233,157);stroke-width:0.35px;"/>
            </g>
            <g transform="matrix(-0.89827,-0.937671,-0.722115,0.691773,29.0607,32.5933)">
                <path d="M13.362,2.985C12.5,4.936 13.379,5.99 12.944,6.482C12.429,7.065 12.456,9.577 13.991,9.517C14.799,9.485 14.177,7.003 12.944,6.482" style="fill:rgb(255,233,157);stroke:rgb(255,233,157);stroke-width:0.35px;"/>
            </g>
            <g transform="matrix(-0.89827,-0.937671,-0.722115,0.691773,28.2017,35.5914)">
                <path d="M13.362,2.985C12.5,4.936 13.379,5.99 12.944,6.482C12.429,7.065 12.456,9.577 13.991,9.517C14.799,9.485 14.177,7.003 12.944,6.482" style="fill:rgb(255,233,157);stroke:rgb(255,233,157);stroke-width:0.35px;"/>
            </g>
            <g transform="matrix(-0.89827,-0.937671,-0.722115,0.691773,27.7782,38.2981)">
                <path d="M13.362,2.985C12.5,4.936 13.379,5.99 12.944,6.482C12.429,7.065 12.456,9.577 13.991,9.517C14.799,9.485 14.177,7.003 12.944,6.482" style="fill:rgb(255,233,157);stroke:rgb(255,233,157);stroke-width:0.35px;"/>
            </g>
            <g transform="matrix(-0.89827,-0.937671,-0.722115,0.691773,27.1242,41.1274)">
                <path d="M13.362,2.985C12.5,4.936 13.379,5.99 12.944,6.482C12.429,7.065 12.456,9.577 13.991,9.517C14.799,9.485 14.177,7.003 12.944,6.482" style="fill:rgb(255,233,157);stroke:rgb(255,233,157);stroke-width:0.35px;"/>
            </g>
            <g transform="matrix(-0.89827,-0.937671,-0.722115,0.691773,26.1914,43.8692)">
                <path d="M13.362,2.985C12.5,4.936 13.379,5.99 12.944,6.482C12.429,7.065 12.456,9.577 13.991,9.517C14.799,9.485 14.177,7.003 12.944,6.482" style="fill:rgb(255,233,157);stroke:rgb(255,233,157);stroke-width:0.35px;"/>
            </g>
            <g transform="matrix(1.29017,0,0,1.24862,-5.14101,0.0570754)">
                <path d="M13.362,2.985C12.5,4.936 13.379,5.99 12.944,6.482C12.429,7.065 12.456,9.577 13.991,9.517C14.799,9.485 14.177,7.003 12.944,6.482" style="fill:rgb(255,233,157);stroke:rgb(255,233,157);stroke-width:0.32px;"/>
            </g>
            <g transform="matrix(1.2873,-0.0859593,0.0831912,1.24585,-6.83399,3.9773)">
                <path d="M13.362,2.985C12.5,4.936 13.379,5.99 12.944,6.482C12.429,7.065 12.456,9.577 13.991,9.517C14.799,9.485 14.177,7.003 12.944,6.482" style="fill:rgb(255,233,157);stroke:rgb(255,233,157);stroke-width:0.32px;"/>
            </g>
            <g transform="matrix(1.2873,-0.0859593,0.0860002,1.24566,-8.12218,6.69612)">
                <path d="M13.362,2.985C12.5,4.936 13.379,5.99 12.944,6.482C12.429,7.065 12.456,9.577 13.991,9.517C14.799,9.485 14.177,7.003 12.944,6.482" style="fill:rgb(255,233,157);stroke:rgb(255,233,157);stroke-width:0.31px;"/>
            </g>
            <g transform="matrix(1.2873,-0.0859593,0.0860002,1.24566,-9.16285,9.41903)">
                <path d="M13.362,2.985C12.5,4.936 13.379,5.99 12.944,6.482C12.429,7.065 12.456,9.577 13.991,9.517C14.799,9.485 14.177,7.003 12.944,6.482" style="fill:rgb(255,233,157);stroke:rgb(255,233,157);stroke-width:0.31px;"/>
            </g>
            <g transform="matrix(1.2873,-0.0859593,0.0860002,1.24566,-9.93937,12.5276)">
                <path d="M13.362,2.985C12.5,4.936 13.379,5.99 12.944,6.482C12.429,7.065 12.456,9.577 13.991,9.517C14.799,9.485 14.177,7.003 12.944,6.482" style="fill:rgb(255,233,157);stroke:rgb(255,233,157);stroke-width:0.31px;"/>
            </g>
            <g transform="matrix(1.2873,-0.0859593,0.0860002,1.24566,-11.0411,15.265)">
                <path d="M13.362,2.985C12.5,4.936 13.379,5.99 12.944,6.482C12.429,7.065 12.456,9.577 13.991,9.517C14.799,9.485 14.177,7.003 12.944,6.482" style="fill:rgb(255,233,157);stroke:rgb(255,233,157);stroke-width:0.31px;"/>
            </g>
            <g transform="matrix(1.27326,-0.208169,0.204244,1.23181,-12.2665,20.0714)">
                <path d="M13.362,2.985C12.5,4.936 13.379,5.99 12.944,6.482C12.429,7.065 12.456,9.577 13.991,9.517C14.799,9.485 14.177,7.003 12.944,6.482" style="fill:rgb(255,233,157);stroke:rgb(255,233,157);stroke-width:0.31px;"/>
            </g>
            <g transform="matrix(1.2593,-0.280549,0.274263,1.21813,-13.423,23.7705)">
                <path d="M13.362,2.985C12.5,4.936 13.379,5.99 12.944,6.482C12.429,7.065 12.456,9.577 13.991,9.517C14.799,9.485 14.177,7.003 12.944,6.482" style="fill:rgb(255,233,157);stroke:rgb(255,233,157);stroke-width:0.31px;"/>
            </g>
            <g transform="matrix(1.24337,-0.344341,0.335965,1.20258,-14.116,27.7096)">
                <path d="M13.362,2.985C12.5,4.936 13.379,5.99 12.944,6.482C12.429,7.065 12.456,9.577 13.991,9.517C14.799,9.485 14.177,7.003 12.944,6.482" style="fill:rgb(255,233,157);stroke:rgb(255,233,157);stroke-width:0.31px;"/>
            </g>
            <g transform="matrix(1.23484,-0.373783,0.364441,1.19426,-14.8829,31.136)">
                <path d="M13.362,2.985C12.5,4.936 13.379,5.99 12.944,6.482C12.429,7.065 12.456,9.577 13.991,9.517C14.799,9.485 14.177,7.003 12.944,6.482" style="fill:rgb(255,233,157);stroke:rgb(255,233,157);stroke-width:0.31px;"/>
            </g>
        </g>
        <path d="M3.842,52.626C3.842,52.626 5.747,39.388 8.311,28.306C10.57,18.543 13.937,9.785 15.103,8.804" style="fill:none;stroke:rgb(255,233,157);stroke-width:1px;"/>
    </g>
</svg>
